<?xml version="1.0" encoding="utf-8"?>
<!-- Svg Vector Icons : http://www.onlinewebfonts.com/icon -->
<!DOCTYPE svg PUBLIC "-//W3C//DTD SVG 1.1//EN" "http://www.w3.org/Graphics/SVG/1.1/DTD/svg11.dtd">
<svg version="1.1" xmlns="http://www.w3.org/2000/svg" xmlns:xlink="http://www.w3.org/1999/xlink" x="0px" y="0px" viewBox="0 0 1000 1000" enable-background="new 0 0 1000 1000" xml:space="preserve">
<metadata> Svg Vector Icons : http://www.onlinewebfonts.com/icon </metadata>
<g><g transform="translate(0.000000,511.000000) scale(0.100000,-0.100000)"><path d="M4634.6,5001.5c-976.2-88.6-1829.2-412.1-2599.4-985.8c-285-213.7-733.6-662.4-947.4-947.4C575.6,2380.8,269.4,1645.3,134.7,776.9C88.5,466.9,88.5-261,134.7-571c98.2-637.4,279.2-1180.3,568-1704.1c718.2-1305.5,1996.8-2222.1,3448.6-2474.3c188.7-32.7,308.1-38.5,858.8-38.5c550.7,0,666.2,5.8,849.2,38.5C7312.9-4487.5,8560.7-3594,9290.5-2290.4c292.7,521.8,491,1126.4,585.4,1786.9c36.6,261.9,30.8,1005.1-11.6,1280.4c-92.4,602.7-244.5,1076.4-510.3,1588.6c-244.5,471.7-500.6,818.3-895.4,1213.1c-751,749-1661.7,1211.1-2716.9,1376.7C5499.1,4993.8,4848.3,5020.7,4634.6,5001.5z M5404.8,4414.2c1709.8-156,3171.3-1319,3706.6-2948c537.2-1642.5,73.2-3410.1-1207.3-4588.5c-620-573.8-1388.3-937.7-2277.9-1080.2c-296.5-48.1-955-48.1-1251.6,0c-464,75.1-835.7,188.7-1232.3,375.5C1349.7-2975.9,363.8-994.6,756.6,965.6C1189.8,3131.8,3190.4,4616.4,5404.8,4414.2z"/><path d="M4875.3,2677.4c-21.2-13.5-464-452.5-985.9-976.2c-828-833.7-947.3-962.8-958.9-1024.4c-23.1-129,36.6-258,144.4-313.9c65.5-34.6,196.4-38.5,256.1-7.7c23.1,11.6,342.8,321.6,712.4,687.4l668.2,668.2V-289.8c0-2210.5-7.7-2081.5,123.2-2173.9c82.8-59.7,248.4-59.7,331.2,0c130.9,92.4,123.2-36.6,123.2,2173.9v2000.6l670.1-668.2c367.8-365.8,687.4-675.8,710.5-687.4s80.9-21.2,127.1-21.2c196.4,0,337,209.9,258,389c-13.5,28.9-456.3,487.1-983.9,1016.7l-962.7,962.8H5012C4958.1,2700.5,4896.5,2690.8,4875.3,2677.4z"/></g></g>
</svg>