<?xml version="1.0" encoding="utf-8"?>
<!-- Svg Vector Icons : http://www.onlinewebfonts.com/icon -->
<!DOCTYPE svg PUBLIC "-//W3C//DTD SVG 1.1//EN" "http://www.w3.org/Graphics/SVG/1.1/DTD/svg11.dtd">
<svg version="1.1" xmlns="http://www.w3.org/2000/svg" xmlns:xlink="http://www.w3.org/1999/xlink" x="0px" y="0px" viewBox="0 0 1000 1000" enable-background="new 0 0 1000 1000" xml:space="preserve">
<metadata> Svg Vector Icons : http://www.onlinewebfonts.com/icon </metadata>
<g><path d="M939.2,237.5v401l-84.4-86.3l-44-53.4l-32.7,57.9c-7.2,7.4-45.4,44.3-197.2,164c-43.2,26.9-88.6,40.6-137.5,41.7h-12c-90.9-1.2-178.4-43.3-246.5-89.1c115.5-9.2,236.3-56.1,271.7-81.5c33.4-23.9,91.6-79.2,172.9-164.1l47.2-26.8l-40-46.8l-99.8-116.7H939.2 M990,186.7H426.5L598,387.2l0,0l0,0c-0.7,0.4-118.1,125.5-171,163.4c-28.9,20.7-164.2,73.5-280.7,73.5c-50.8,0-98-10-131.3-37.2c-2.5-2.1-4-3-4.7-3c-0.1,0-0.2,0-0.3,0.1v0.6c2.2,12.6,199.8,225.6,420.6,228.5h12.7c55.3-1.3,111.8-16.1,166.9-51c190.1-149.9,208.2-174.5,208.2-174.5L990,763.2L990,186.7L990,186.7z"/></g>
</svg>