<?xml version="1.0" encoding="utf-8"?>
<!-- Svg Vector Icons : http://www.onlinewebfonts.com/icon -->
<!DOCTYPE svg PUBLIC "-//W3C//DTD SVG 1.1//EN" "http://www.w3.org/Graphics/SVG/1.1/DTD/svg11.dtd">
<svg version="1.1" xmlns="http://www.w3.org/2000/svg" xmlns:xlink="http://www.w3.org/1999/xlink" x="0px" y="0px" viewBox="0 0 1000 1000" enable-background="new 0 0 1000 1000" xml:space="preserve">
<metadata> Svg Vector Icons : http://www.onlinewebfonts.com/icon </metadata>
<g><path d="M889.7,242.1c-45.7,56-171,210.8-270.5,333.8L492.8,446.4c114.3-102.6,255.8-229.5,306.9-274.9c91-80.9,170.7-129,188.1-109.3C998.7,73.1,969.8,143.7,889.7,242.1z M597.1,603.1c-38.5,47.6-71.7,88.6-92,113.8L355.5,569.7c24.2-21.8,64.6-58,111.4-100L597.1,603.1z M482.8,744.4V744C395.9,1080.2,10,886.9,10,886.9s161.9,20.6,161.9-131.8c0-147.7,148.8-161.1,157.9-161.7L483.1,744C483.1,744.1,482.8,744.4,482.8,744.4z"/></g>
</svg>