<?xml version="1.0" encoding="utf-8"?>
<!-- Svg Vector Icons : http://www.onlinewebfonts.com/icon -->
<!DOCTYPE svg PUBLIC "-//W3C//DTD SVG 1.1//EN" "http://www.w3.org/Graphics/SVG/1.1/DTD/svg11.dtd">
<svg version="1.1" xmlns="http://www.w3.org/2000/svg" xmlns:xlink="http://www.w3.org/1999/xlink" x="0px" y="0px" viewBox="0 0 1000 1000" enable-background="new 0 0 1000 1000" xml:space="preserve">
<metadata> Svg Vector Icons : http://www.onlinewebfonts.com/icon </metadata>
<g><path d="M561.2,561.2c0,33.8-27.4,61.2-61.3,61.2c-33.8,0-61.3-27.4-61.3-61.2l-56.8-397.9c-2.6-9.9-4.4-20.1-4.4-30.9C377.5,64.8,432.3,10,500,10c67.7,0,122.5,54.9,122.5,122.5c0,10.7-1.8,20.9-4.4,30.9L561.2,561.2z M500,745c67.7,0,122.5,54.8,122.5,122.5c0,67.7-54.8,122.5-122.5,122.5c-67.7,0-122.5-54.8-122.5-122.5C377.5,799.8,432.3,745,500,745z"/></g>
</svg>