<?xml version="1.0" encoding="utf-8"?>
<!-- Svg Vector Icons : http://www.onlinewebfonts.com/icon -->
<!DOCTYPE svg PUBLIC "-//W3C//DTD SVG 1.1//EN" "http://www.w3.org/Graphics/SVG/1.1/DTD/svg11.dtd">
<svg version="1.1" xmlns="http://www.w3.org/2000/svg" xmlns:xlink="http://www.w3.org/1999/xlink" x="0px" y="0px" viewBox="0 0 1000 1000" enable-background="new 0 0 1000 1000" xml:space="preserve">
<metadata> Svg Vector Icons : http://www.onlinewebfonts.com/icon </metadata>
<g><g transform="translate(0.000000,511.000000) scale(0.100000,-0.100000)"><path d="M2736.6,4984.1c-234-77.2-435.2-248-531.1-456.3l-49.1-107.6V114.9v-4305.3l77.2-156.8c88.9-180.2,168.5-255,379.1-355.7c117-56.1,191.9-74.9,329.9-79.5c339.3-16.4,161.4-173.2,2601.9,2262.6C7984.8-84,7839.8-250.1,7842.1,103.2c0,374.4,142.7,210.6-2297.7,2646.4c-1754.9,1750.2-2169,2152.7-2262.6,2194.8C3136.7,5012.2,2874.7,5030.9,2736.6,4984.1z"/></g></g>
</svg>