<?xml version="1.0" encoding="utf-8"?>
<!-- Svg Vector Icons : http://www.onlinewebfonts.com/icon -->
<!DOCTYPE svg PUBLIC "-//W3C//DTD SVG 1.1//EN" "http://www.w3.org/Graphics/SVG/1.1/DTD/svg11.dtd">
<svg version="1.1" xmlns="http://www.w3.org/2000/svg" xmlns:xlink="http://www.w3.org/1999/xlink" x="0px" y="0px" viewBox="0 0 1000 1000" enable-background="new 0 0 1000 1000" xml:space="preserve">
<metadata> Svg Vector Icons : http://www.onlinewebfonts.com/icon </metadata>
<g><g transform="translate(0.000000,511.000000) scale(0.100000,-0.100000)"><path d="M838.7,4880.4C670,4681,626.5,4599.2,570.3,4384.5c-61.3-232.6-40.9-802.6,38.3-1073.6c112.5-388.5,304.2-687.6,511.2-792.4c92-48.5,97.1-56.2,115-209.6c92-871.6,858.8-2770.8,1871.1-4641.9c508.7-940.6,1357.3-2400.2,1431.4-2461.5c56.2-48.6,201.9-40.9,263.3,15.3c33.2,28.1,51.1,79.2,51.1,135.5c0,163.6-761.7,2594.4-1111.9,3547.9C3154.5,494.1,2362.1,2078.9,1894.3,2597.8c-81.8,92-81.8,92-53.7,230c56.2,278.6-53.7,600.7-493.3,1428.8c-122.7,232.6-247.9,506.1-281.2,608.3c-33.2,99.7-63.9,184-71.6,181.5C984.4,5046.5,915.4,4972.4,838.7,4880.4z M1196.5,3694.3c237.7-472.9,309.3-761.7,204.5-817.9c-38.3-20.4-63.9-12.8-135.5,48.6c-178.9,158.5-324.6,621.1-324.6,1030.1v212.2l66.5-115C1043.2,3988.3,1127.5,3827.2,1196.5,3694.3z M2116.7,1508.9c393.6-700.4,825.6-1648.7,1191.1-2622.5c161-429.4,654.4-1904.3,626.2-1873.6C3829.3-2874.8,2850.3-993.5,2564-357.1c-393.6,884.4-828.2,2085.8-1002,2786.1C1546.7,2485.3,1838.1,2002.2,2116.7,1508.9z"/><path d="M4315,1836c-524-28.1-1500.4-145.7-1543.9-186.6c-10.2-10.2,23-97.1,74.1-191.7l97.1-171.3l117.6,15.4c1329.2,191.7,2724.8,186.6,3936.4-12.8c1045.4-173.8,1912-501,2277.5-864c207-207.1,258.2-334.9,204.5-534.2c-53.7-186.6-301.6-419.2-636.5-590.4c-820.5-421.8-1975.8-656.9-3504.4-715.7c-316.9-12.8-595.6-30.7-618.6-40.9c-25.6-10.2,40.9,66.5,143.1,171.3c161,158.5,196.8,212.1,232.6,337.4c35.8,122.7,38.3,173.8,15.4,301.6c-79.2,449.9-478,646.7-1270.4,628.8l-311.8-7.7l81.8-194.2l79.2-196.8l332.3-12.8c350.2-12.8,460.1-38.3,593-138c99.7-71.6,135.5-207,81.8-306.7c-17.9-35.8-140.6-153.4-268.4-265.8c-263.3-224.9-322.1-324.6-265.8-457.5c76.7-181.5,409-242.8,1201.3-219.8c2305.6,69,4079.5,659.5,4468,1490.2c56.2,120.1,69,186.6,69,340c0,166.1-12.8,217.3-84.3,363C9498.7,1018.1,8299.9,1537,6641,1749.1C5948.3,1838.6,5002.5,1874.4,4315,1836z M4614-1509.9c-7.7-7.7-30.7-10.2-48.6-2.6c-20.4,7.7-12.8,15.4,15.3,15.4C4608.9-1494.5,4624.2-1502.2,4614-1509.9z"/><path d="M997.2,1087.1C422,783,130.6,448.1,102.5,57C87.2-165.4,140.9-311.1,284-433.8c161-138,373.2-194.3,784.7-209.6c306.7-12.8,884.4,23,915.1,56.2c7.7,5.1-23,89.5-63.9,184l-79.2,173.8l-457.5-10.2c-513.8-10.2-708,17.9-810.3,112.5c-201.9,186.6,63.9,575.1,577.7,841c130.4,69,242.8,127.8,245.4,132.9c20.5,15.3-109.9,368.1-132.9,368.1C1247.7,1214.9,1127.5,1156.1,997.2,1087.1z"/></g></g>
</svg>