<?xml version="1.0" encoding="utf-8"?>
<!-- Svg Vector Icons : http://www.onlinewebfonts.com/icon -->
<!DOCTYPE svg PUBLIC "-//W3C//DTD SVG 1.1//EN" "http://www.w3.org/Graphics/SVG/1.1/DTD/svg11.dtd">
<svg version="1.1" xmlns="http://www.w3.org/2000/svg" xmlns:xlink="http://www.w3.org/1999/xlink" x="0px" y="0px" viewBox="0 0 1000 1000" enable-background="new 0 0 1000 1000" xml:space="preserve">
<metadata> Svg Vector Icons : http://www.onlinewebfonts.com/icon </metadata>
<g><g><g><path d="M238,241.7L713.9,78.8c18.5-6.3,28.4-26.4,22-44.9c-6.3-18.5-26.4-28.3-44.9-22L565.9,54.7c-6.9-20.4-29.1-31.3-49.5-24.3l-151.9,52c-20.4,7-31.3,29.2-24.3,49.6l-125.1,42.8c-18.5,6.3-28.4,26.4-22,44.9C199.4,238.2,219.5,248.1,238,241.7z"/><path d="M797.8,867h-84.9l38.5-539.1c0-24.6-24.7-28.1-55.1-28.1H232.7c-30.4,0-55,3.5-55,28.1l33,617.5c0,24.6,24.7,44.6,55.1,44.6h386.6c30.4,0,55.1-20,55.1-44.6l1-13.8h89.5c13.5,0,24.6-14.5,24.6-32.3C822.4,881.5,811.3,867,797.8,867z M344.2,902.3c-15.6,1.5-29.4-9.8-30.9-25.3L268,418.3c-1.5-15.5,9.8-29.3,25.3-30.8c15.5-1.5,29.4,9.8,30.9,25.3l45.3,458.6C371,886.9,359.7,900.7,344.2,902.3z M492.7,875.3c0,15.6-12.6,28.2-28.2,28.2c-15.6,0-28.2-12.6-28.2-28.2V414.4c0-15.6,12.7-28.2,28.2-28.2c15.6,0,28.2,12.7,28.2,28.2V875.3z M615.7,877c-1.6,15.5-15.4,26.8-30.9,25.3c-15.5-1.5-26.9-15.3-25.3-30.8l45.3-458.6c1.5-15.5,15.3-26.8,30.8-25.3c15.6,1.5,26.8,15.3,25.3,30.8L615.7,877z"/></g></g><g></g><g></g><g></g><g></g><g></g><g></g><g></g><g></g><g></g><g></g><g></g><g></g><g></g><g></g><g></g></g>
</svg>